<svg width="56" height="56" xmlns="http://www.w3.org/2000/svg">
 <!-- Created with Method Draw - http://github.com/duopixel/Method-Draw/ -->
 <defs>
  <filter id="svg_1_blur" x="-50%" y="-50%" width="200%" height="200%">
   <feGaussianBlur stdDeviation="0"/>
  </filter>
  <filter id="svg_4_blur">
   <feGaussianBlur stdDeviation="0"/>
  </filter>
 </defs>
 <g>
  <title>background</title>
  <rect x="-1" y="-1" width="58" height="58" id="canvas_background" fill="#fff"/>
  <g id="canvasGrid" display="none">
   <rect id="svg_2" width="100%" height="100%" x="0" y="0" stroke-width="0" fill="url(#gridpattern)"/>
  </g>
 </g>
 <g>
  <title>Layer 1</title>
  <ellipse transform="rotate(-1 27.999999999999634,28.000000000000085) " stroke="#000" fill="#84D3DB" stroke-width="0" cx="28" cy="28" id="svg_1" rx="28" ry="28" filter="url(#svg_1_blur)"/>
  <path fill="#9ACEE6" stroke="#000" stroke-width="1.5" opacity="0.5" d="m-81,383" id="svg_3"/>
  <path stroke="#000" fill="#FFF5FF" stroke-width="0" stroke-opacity="null" d="m29.33338,38.81819l-4.65056,-6.68182l8.99162,0l8.9916,0l0,-4.13636l0,-4.13637l-8.88846,0c-4.88864,0 -8.88845,-0.20965 -8.88845,-0.46589c0,-0.25624 1.94616,-3.26305 4.32478,-6.68182l4.3248,-6.21593l-3.99743,0l-3.99741,0l-6.10496,8.75838l-6.10496,8.75838l6.11667,8.74162l6.11667,8.74162l4.20832,0l4.20833,0l-4.65057,-6.68182l0,0l0.00001,0.00001z" id="svg_4" filter="url(#svg_4_blur)"/>
 </g>
</svg>